<mxfile host="app.diagrams.net" modified="2020-10-17T20:00:50.401Z" agent="5.0 (Windows)" etag="9gTmnw0_p-jVRepB7A3S" version="13.8.0" type="github">
  <diagram id="gTpZxySX7KsCYIdbHtud" name="Page-1">
    <mxGraphModel dx="868" dy="479" grid="1" gridSize="10" guides="1" tooltips="1" connect="1" arrows="1" fold="1" page="1" pageScale="1" pageWidth="850" pageHeight="1100" math="0" shadow="0">
      <root>
        <mxCell id="0" />
        <mxCell id="1" parent="0" />
        <mxCell id="qQcGfu4aJAht8PMaA61o-1" value="Pool" style="rounded=0;whiteSpace=wrap;html=1;" vertex="1" parent="1">
          <mxGeometry x="215" y="80" width="345" height="30" as="geometry" />
        </mxCell>
        <mxCell id="qQcGfu4aJAht8PMaA61o-2" value="&lt;font style=&quot;font-size: 18px&quot;&gt;System&lt;/font&gt;" style="rounded=0;whiteSpace=wrap;html=1;" vertex="1" parent="1">
          <mxGeometry x="215" y="110" width="345" height="30" as="geometry" />
        </mxCell>
        <mxCell id="qQcGfu4aJAht8PMaA61o-3" value="" style="rounded=0;whiteSpace=wrap;html=1;" vertex="1" parent="1">
          <mxGeometry x="215" y="140" width="345" height="310" as="geometry" />
        </mxCell>
        <mxCell id="qQcGfu4aJAht8PMaA61o-9" style="edgeStyle=orthogonalEdgeStyle;rounded=0;orthogonalLoop=1;jettySize=auto;html=1;entryX=0.5;entryY=0;entryDx=0;entryDy=0;" edge="1" parent="1" source="qQcGfu4aJAht8PMaA61o-4" target="qQcGfu4aJAht8PMaA61o-5">
          <mxGeometry relative="1" as="geometry" />
        </mxCell>
        <mxCell id="qQcGfu4aJAht8PMaA61o-4" value="" style="ellipse;whiteSpace=wrap;html=1;aspect=fixed;fillColor=#000000;strokeColor=#FF0000;" vertex="1" parent="1">
          <mxGeometry x="290" y="160" width="35" height="35" as="geometry" />
        </mxCell>
        <mxCell id="qQcGfu4aJAht8PMaA61o-10" style="edgeStyle=orthogonalEdgeStyle;rounded=0;orthogonalLoop=1;jettySize=auto;html=1;entryX=0.5;entryY=0;entryDx=0;entryDy=0;" edge="1" parent="1" source="qQcGfu4aJAht8PMaA61o-5" target="qQcGfu4aJAht8PMaA61o-6">
          <mxGeometry relative="1" as="geometry" />
        </mxCell>
        <mxCell id="qQcGfu4aJAht8PMaA61o-12" style="edgeStyle=orthogonalEdgeStyle;rounded=0;orthogonalLoop=1;jettySize=auto;html=1;entryX=0.5;entryY=0;entryDx=0;entryDy=0;" edge="1" parent="1" source="qQcGfu4aJAht8PMaA61o-5" target="qQcGfu4aJAht8PMaA61o-7">
          <mxGeometry relative="1" as="geometry" />
        </mxCell>
        <mxCell id="qQcGfu4aJAht8PMaA61o-5" value="&lt;div&gt;&lt;font style=&quot;font-size: 18px&quot;&gt;LSTM&lt;/font&gt;&lt;/div&gt;&lt;div&gt;&lt;font style=&quot;font-size: 18px&quot;&gt; Layer 1&lt;/font&gt;&lt;/div&gt;" style="rounded=1;whiteSpace=wrap;html=1;strokeColor=#000000;fillColor=#FFFFFF;" vertex="1" parent="1">
          <mxGeometry x="247.5" y="240" width="120" height="60" as="geometry" />
        </mxCell>
        <mxCell id="qQcGfu4aJAht8PMaA61o-13" style="edgeStyle=orthogonalEdgeStyle;rounded=0;orthogonalLoop=1;jettySize=auto;html=1;entryX=0.5;entryY=1;entryDx=0;entryDy=0;" edge="1" parent="1" source="qQcGfu4aJAht8PMaA61o-6" target="qQcGfu4aJAht8PMaA61o-7">
          <mxGeometry relative="1" as="geometry" />
        </mxCell>
        <mxCell id="qQcGfu4aJAht8PMaA61o-6" value="&lt;div&gt;&lt;font style=&quot;font-size: 18px&quot;&gt;LSTM&lt;/font&gt;&lt;/div&gt;&lt;div&gt;&lt;font style=&quot;font-size: 18px&quot;&gt; Layer 2&lt;br&gt;&lt;/font&gt;&lt;/div&gt;" style="rounded=1;whiteSpace=wrap;html=1;strokeColor=#000000;fillColor=#FFFFFF;" vertex="1" parent="1">
          <mxGeometry x="247.5" y="360" width="120" height="60" as="geometry" />
        </mxCell>
        <mxCell id="qQcGfu4aJAht8PMaA61o-14" style="edgeStyle=orthogonalEdgeStyle;rounded=0;orthogonalLoop=1;jettySize=auto;html=1;entryX=0;entryY=0.5;entryDx=0;entryDy=0;" edge="1" parent="1" source="qQcGfu4aJAht8PMaA61o-7" target="qQcGfu4aJAht8PMaA61o-8">
          <mxGeometry relative="1" as="geometry" />
        </mxCell>
        <mxCell id="qQcGfu4aJAht8PMaA61o-7" value="" style="ellipse;whiteSpace=wrap;html=1;aspect=fixed;strokeColor=#000000;fillColor=#FFFFFF;" vertex="1" parent="1">
          <mxGeometry x="425" y="320" width="30" height="30" as="geometry" />
        </mxCell>
        <mxCell id="qQcGfu4aJAht8PMaA61o-8" value="" style="ellipse;whiteSpace=wrap;html=1;aspect=fixed;fillColor=#000000;strokeColor=#FF0000;" vertex="1" parent="1">
          <mxGeometry x="500" y="317.5" width="35" height="35" as="geometry" />
        </mxCell>
      </root>
    </mxGraphModel>
  </diagram>
</mxfile>
